<?xml version="1.0" standalone="no"?>
<!DOCTYPE svg PUBLIC "-//W3C//DTD SVG 20010904//EN"
 "http://www.w3.org/TR/2001/REC-SVG-20010904/DTD/svg10.dtd">
<svg version="1.0" xmlns="http://www.w3.org/2000/svg"
 width="502.000000pt" height="502.000000pt" viewBox="0 0 502.000000 502.000000"
 preserveAspectRatio="xMidYMid meet">
<metadata>
Created by potrace 1.14, written by Peter Selinger 2001-2017
</metadata>
<g transform="translate(0.000000,502.000000) scale(0.100000,-0.100000)"
fill="#000000" stroke="none">
<path d="M1120 4694 c-336 -61 -581 -241 -720 -527 -64 -132 -91 -241 -97
-387 -22 -517 381 -950 907 -977 378 -19 723 187 890 530 76 158 94 241 94
427 -1 139 -3 164 -28 245 -82 269 -249 470 -491 590 -146 72 -246 97 -405
101 -69 1 -136 0 -150 -2z m325 -239 c140 -38 274 -129 375 -254 107 -133 154
-270 154 -451 1 -66 -5 -139 -13 -170 -63 -254 -263 -460 -516 -532 -63 -17
-105 -22 -200 -22 -126 0 -169 8 -275 51 -199 81 -361 265 -421 478 -27 96
-32 277 -10 365 41 164 129 297 274 411 87 69 196 116 325 139 65 12 235 4
307 -15z"/>
<path d="M3620 4694 c-224 -41 -391 -125 -535 -269 -176 -175 -270 -388 -281
-640 -5 -97 -2 -138 14 -216 91 -437 447 -743 892 -766 378 -19 723 187 890
530 77 159 95 241 94 427 -1 139 -3 164 -28 245 -57 189 -165 355 -308 474
-90 75 -262 162 -378 192 -82 21 -296 35 -360 23z"/>
<path d="M1120 2194 c-224 -41 -391 -125 -535 -269 -410 -408 -369 -1082 86
-1425 169 -127 334 -187 544 -196 97 -5 138 -2 216 14 366 76 643 339 740 702
31 115 33 338 5 450 -72 282 -253 505 -509 630 -140 67 -241 92 -397 96 -69 1
-136 0 -150 -2z"/>
<path d="M3591 2189 c-82 -14 -229 -66 -298 -105 -188 -105 -358 -301 -429
-496 -63 -170 -79 -359 -46 -519 91 -440 448 -744 897 -765 97 -5 138 -2 216
14 366 76 643 339 740 702 31 116 33 338 5 450 -73 285 -251 504 -510 630
-139 67 -240 92 -396 96 -69 1 -149 -1 -179 -7z"/>
</g>
</svg>
